<svg width="1442" height="1442" viewBox="0 0 1442 1442" fill="none" xmlns="http://www.w3.org/2000/svg">
<g clip-path="url(#clip0_77_63)">
<rect width="1442" height="1442" rx="721" fill="black"/>
<path d="M224.983 694.505L206.5 273.662C206.5 273.662 404.836 46.8907 724.023 46.8907C1043.21 46.8907 1241.55 273.662 1241.55 273.662V446.407L1225.91 694.505L1132.07 936.205L934.444 1191.41L716.203 1364.16L500.095 1191.41L380.666 1052.08L224.983 694.505Z" fill="#F3B22D"/>
<path d="M206.5 273.662L224.983 694.505L380.666 1052.08L500.095 1191.41L716.203 1364.16L934.444 1191.41L1132.07 936.205L1225.91 694.505L1241.55 446.407V191.2V273.662C1241.55 273.662 1043.21 46.8907 724.023 46.8907C404.836 46.8907 206.5 273.662 206.5 273.662Z" stroke="black" stroke-width="1.42177"/>
<path fill-rule="evenodd" clip-rule="evenodd" d="M432.916 -154.853L102 -154.495L102.02 187.081C102.031 396.564 102.593 539.65 103.473 557.08C108.574 658.258 132.68 774.899 167.091 864.906C220.268 1004 298.714 1123.98 408.381 1233.95C474.611 1300.36 567.79 1379.37 659.332 1446.73C690.719 1469.83 717.157 1487.78 720.087 1487.99C722.618 1488.17 726.592 1485.58 761.699 1460.82C863.987 1388.7 982.882 1287.82 1049.79 1216.38C1129.26 1131.53 1178.83 1062.65 1227.03 970.116C1280.22 867.996 1317.87 743.825 1331.15 626.76C1338.23 564.327 1337.94 580.902 1338.52 201.303L1339.06 -154.487L1051.45 -154.849C893.258 -155.048 614.919 -155.051 432.916 -154.853ZM1299.12 180.681C1299.11 517.292 1298.04 569.592 1289.76 639.556C1283.3 694.153 1262.62 778.685 1241.65 836.223C1197 958.751 1139.43 1055.52 1051.18 1156.37C1032.13 1178.14 965.191 1245.12 939.42 1268.19C872.476 1328.13 782.056 1400.36 727.425 1437.54L720.876 1442L694.724 1423.22C599.583 1354.89 514.606 1283.35 440.328 1209.04C331.819 1100.49 257.973 989.358 208.21 859.72C171.729 764.682 150.651 667.227 144.758 566.335C143.255 540.623 142.633 366.386 142.997 73.3372L143.231 -116.113H721.179H1299.13L1299.12 180.681ZM185.569 48.4563C184.936 293.108 185.197 489.744 186.204 527.236C187.533 576.741 191.881 626.812 198.053 663.726C219.517 792.081 266.107 911.599 335.781 1017.03C376.9 1079.26 416.316 1126.55 476.853 1186.29C548.689 1257.18 633.229 1328.53 707.295 1380.79L721.847 1391.06L741.418 1376.55C835.925 1306.48 943.708 1212.12 1002.56 1147.95C1143.35 994.406 1223.9 823.489 1248.52 626.049C1256.28 563.824 1256.79 528.199 1256.54 58.4087L1256.47 -73.4601H721.179H185.884L185.569 48.4563ZM1220.93 82.2944V201.083L1202.15 183.712C1150.15 135.616 1101.51 101.333 1043.23 71.705C984.401 41.7996 935.826 24.7626 872.613 11.8658C781.111 -6.80202 684.281 -8.01903 587.291 8.28151C524.863 18.7727 474.247 34.6453 419.765 60.8157C354.487 92.17 285.907 139.401 235.74 187.552L221.428 201.289V82.3981V-36.4942H721.179H1220.93V82.2944ZM753.898 76.0329C769.273 93.0515 805.446 145.577 864.067 236.009C884.787 267.973 925.146 326.602 950.029 360.889C999.129 428.541 1008.64 442.418 1022.14 466.1C1048.83 512.886 1066.36 562.423 1073.22 610.409C1075.74 628.051 1075.39 667.816 1072.55 685.739C1062.49 749.374 1033.86 813.867 967.127 923.198C924.456 993.108 904.106 1034.49 886.724 1086.7C880.239 1106.18 869.623 1144.32 871.156 1142.63C871.75 1141.98 878.728 1131.68 886.664 1119.75C914.137 1078.44 948.17 1035.27 972.108 1011.35C985.615 997.851 992.685 991.758 1032.63 959.196C1056.01 940.137 1070.49 926.614 1084.88 910.402L1094.35 899.739L1092.09 906.848C1074.54 962.123 1040.43 1023.7 989.303 1092.39C970.011 1118.3 955.429 1134.26 909.346 1179.9C831.143 1257.35 731.707 1345.93 725.596 1343.59C722.602 1342.44 690.856 1319.77 670.706 1304.4C640.114 1281.06 606.363 1253.72 581.562 1232.17C551.48 1206.04 484.921 1139.45 461.634 1112.19C444.024 1091.57 426.163 1068.99 426.163 1067.34C426.163 1066.86 433.429 1073.46 442.312 1082C473.715 1112.19 513.995 1145.25 597.514 1209.39C621.739 1227.99 648.918 1248.96 657.91 1255.99C687.699 1279.27 723.14 1301.39 730.647 1301.39C731.598 1301.39 726.745 1297.55 719.862 1292.85C697.727 1277.74 683.288 1265.71 660.217 1243.14C621.584 1205.35 583.322 1157.23 544.891 1098.11C523.05 1064.51 494.417 1013.71 496.274 1011.85C496.617 1011.51 502.256 1017.1 508.804 1024.27C515.353 1031.45 532.546 1048.55 547.013 1062.28C614.694 1126.5 651.395 1154.17 722.601 1194.69C736.676 1202.7 750.651 1210.84 753.655 1212.78C756.659 1214.71 759.412 1216 759.773 1215.64C760.896 1214.51 739.931 1187.69 725.12 1171.3C702.109 1145.83 680.074 1125.63 627.388 1081.72C522.108 993.972 497.112 966.414 467.482 905.426C437.368 843.441 414.678 765.425 404.633 689.317C401.961 669.08 401.434 658.324 401.39 623.205C401.357 596.483 401.997 576.62 403.156 568.467C411.945 506.598 430.57 458.741 466.895 404.69C487.387 374.199 504.791 352.824 543.656 310.417C575.822 275.32 591.223 256.064 614.156 222.267C642.557 180.412 669.212 129.288 672.717 109.948L673.618 104.972L671.096 108.51C664.439 117.85 642.557 142.038 628.632 155.451C598.323 184.643 565.497 206.525 516.951 229.899L489.431 243.149L457.441 244.866C397.376 248.092 360.055 250.794 355.544 252.244C345.504 255.47 346.996 256.758 371.863 266.345C404.744 279.02 426.389 288.449 426.066 289.953C425.915 290.651 419.638 296.311 412.116 302.532C384.323 325.512 356.952 356.119 336.408 387.192C318.956 413.59 299.731 454.716 293.043 479.962C291.644 485.24 290.134 489.559 289.684 489.559C288.502 489.559 279.027 459.945 274.902 443.352C267.912 415.236 261.28 371.139 261.218 352.359C261.181 341.152 259.724 340.46 252.774 348.348C240.254 362.557 230.07 383.709 223.46 409.229L220.146 422.025L219.82 412.073C219.643 406.599 219.697 393.52 219.941 383.008L220.386 363.895L229.67 351.018C260.102 308.809 314.89 249.946 353.653 217.813C454.157 134.5 561.027 85.3967 667.152 73.7681C692.168 71.0269 697.411 70.7255 725.635 70.4013L748.572 70.1383L753.898 76.0329ZM806.7 78.6689C911.892 96.421 1016.14 151.563 1117.27 242.947C1149.67 272.22 1185.5 311.318 1210.78 344.981L1221.25 358.92L1221.57 403.625C1221.74 428.211 1221.51 448.301 1221.05 448.267C1220.59 448.233 1216.74 442.5 1212.5 435.529C1195.83 408.166 1164.67 369.663 1132.42 336.593C1120.89 324.762 1111.45 314.674 1111.45 314.172C1111.45 313.671 1117.81 313.26 1125.58 313.26C1138.09 313.26 1154.41 315.542 1161.57 318.296C1166.2 320.073 1164.28 314.824 1158.02 308.587C1146.88 297.493 1123.25 288.24 1089.74 281.858C1080.96 280.186 1072.44 277.77 1070.81 276.489C1044.48 255.802 1015.04 235.453 991.315 221.544C960.223 203.315 910.517 181.65 881.611 173.727L870.464 170.671L857.387 155.569C850.194 147.263 830.145 125.924 812.832 108.146C776.931 71.2842 777.44 73.7311 806.7 78.6689ZM709.805 364.691C701.203 372.564 673.692 396.355 648.669 417.563C589.228 467.939 570.385 484.886 546.302 509.633C516.789 539.962 501.145 561.812 485.19 594.992C461.388 644.492 450.364 708.554 454.523 773.202C459.24 846.522 476.294 901.898 504.783 936.406C507.877 940.152 510.65 942.973 510.948 942.676C511.245 942.379 509.023 935.475 506.009 927.335C495.872 899.953 488.354 868.416 484.179 835.759C482.102 819.511 482.186 743.599 484.289 735.525L485.585 730.549L485.732 735.751C485.971 744.291 494.956 777.545 502.575 798.083C507.772 812.09 510.338 821.694 512.074 833.627C522.647 906.259 549.706 958.446 597.485 998.352C617.512 1015.08 641.476 1029.94 679.237 1049.04C717.207 1068.24 729.806 1075.95 746.06 1089.94C762.696 1104.26 785.814 1132.17 809.906 1167.03C814.77 1174.07 819.292 1179.83 819.955 1179.83C822.405 1179.83 845.67 1148.69 844.84 1146.53C844.385 1145.34 843.4 1139.56 842.649 1133.66C841.136 1121.79 843.269 1030.29 845.611 1006.64C850.159 960.717 866.128 920.124 894.369 882.707C903.913 870.061 929.948 839.332 930.585 839.962C930.808 840.182 927.246 847.324 922.669 855.833C900.647 896.774 887.042 932.12 882.005 961.48C879.626 975.343 878.874 998.552 880.804 998.552C881.406 998.552 884.061 991.709 886.703 983.344C892.289 965.653 903.503 943.167 922.886 910.793C960.508 847.955 977.059 795.422 982.173 722.622C985.245 678.887 976.021 600.375 965.731 582.685C957.694 568.865 860.145 469.039 809.991 423.305C772.388 389.018 728.097 350.213 726.666 350.302C725.993 350.343 718.407 356.819 709.805 364.691ZM1189.45 585.399C1195.93 596.873 1204.73 618.201 1208.16 630.749C1211.12 641.594 1211.14 642.194 1208.87 657.052C1207.6 665.415 1203.43 686.012 1199.62 702.824C1195.8 719.637 1192.42 734.672 1192.1 736.236C1191.22 740.483 1190.3 737.093 1187.62 719.885C1186.35 711.675 1183.81 699.702 1181.98 693.278C1178.74 681.9 1178.7 681.172 1180.61 664.843C1181.69 655.627 1182.98 632.251 1183.48 612.897C1183.98 593.544 1184.55 577.709 1184.75 577.709C1184.95 577.709 1187.07 581.169 1189.45 585.399ZM909.69 587.306C910.065 594.712 909.108 604.452 907.334 611.264C898.379 645.639 868.989 665.801 827.812 665.813C810.325 665.817 789.267 660.682 790.563 656.728C790.839 655.885 799.652 652.174 810.149 648.481C849.654 634.584 882.571 614.744 899.305 594.749C907.927 584.447 909.488 583.328 909.69 587.306ZM552.033 594.862C572.31 615.467 598.764 630.643 643.613 647.4C653.345 651.035 661.554 654.753 661.857 655.66C663.113 659.429 640.219 664.446 621.918 664.412C580.299 664.333 552.721 645.034 543.47 609.511C541.205 600.82 540.558 586.239 542.436 586.239C543.047 586.239 547.367 590.119 552.033 594.862Z" fill="black"/>
</g>
<rect x="17.5" y="17.5" width="1407" height="1407" rx="703.5" stroke="#F3B22D" stroke-width="35"/>
<defs>
<clipPath id="clip0_77_63">
<rect width="1442" height="1442" rx="721" fill="white"/>
</clipPath>
</defs>
</svg>
